<svg width="25" height="25" viewBox="0 0 25 25" fill="none" xmlns="http://www.w3.org/2000/svg">
<path d="M14.8458 25H10.156C9.55057 25 9.02675 24.5913 8.8972 24.0175L8.37281 21.6625C7.67327 21.3651 7.00996 20.9933 6.3951 20.5538L4.02829 21.285C3.45108 21.4636 2.82361 21.2279 2.52085 20.7188L0.170786 16.78C-0.128657 16.2706 -0.0254929 15.6281 0.419449 15.2313L2.25544 13.6063C2.17194 12.8701 2.17194 12.1274 2.25544 11.3912L0.419449 9.77C-0.0261483 9.37296 -0.129353 8.72965 0.170786 8.22L2.51569 4.27875C2.81845 3.76962 3.44593 3.53392 4.02314 3.7125L6.38995 4.44375C6.7044 4.2177 7.03175 4.00903 7.37043 3.81875C7.69555 3.64087 8.03014 3.47981 8.37281 3.33625L8.89849 0.98375C9.02742 0.409961 9.55066 0.000617991 10.156 0H14.8458C15.4511 0.000617991 15.9744 0.409961 16.1033 0.98375L16.6341 3.3375C16.9959 3.4919 17.3482 3.66635 17.6893 3.86C18.0075 4.03852 18.315 4.23424 18.6105 4.44625L20.9786 3.715C21.5555 3.53709 22.1822 3.7727 22.4848 4.28125L24.8297 8.2225C25.1291 8.73186 25.026 9.37439 24.581 9.77125L22.745 11.3962C22.8285 12.1324 22.8285 12.8751 22.745 13.6112L24.581 15.2362C25.026 15.6331 25.1291 16.2756 24.8297 16.785L22.4848 20.7262C22.1822 21.2348 21.5555 21.4704 20.9786 21.2925L18.6105 20.5612C18.3109 20.7754 17.9995 20.9736 17.6777 21.155C17.3399 21.3449 16.9915 21.5164 16.6341 21.6688L16.1033 24.0175C15.9738 24.5908 15.4507 24.9995 14.8458 25ZM6.85764 17.7863L7.91414 18.5363C8.1523 18.7064 8.40053 18.863 8.65755 19.005C8.89939 19.1409 9.14839 19.2644 9.40354 19.375L10.6056 19.8862L11.1944 22.5H13.8099L14.3987 19.885L15.6008 19.3738C16.1256 19.1492 16.6237 18.8701 17.0863 18.5413L18.1441 17.7913L20.7738 18.6038L22.0815 16.4062L20.042 14.6025L20.1863 13.3375C20.2496 12.7842 20.2496 12.2258 20.1863 11.6725L20.042 10.4075L22.0828 8.6L20.7738 6.40125L18.1441 7.21375L17.0863 6.46375C16.6235 6.13339 16.1255 5.85219 15.6008 5.625L14.3987 5.11375L13.8099 2.5H11.1944L10.6031 5.115L9.40354 5.625C9.14819 5.7338 8.89915 5.85607 8.65755 5.99125C8.40211 6.13291 8.15519 6.28858 7.918 6.4575L6.86022 7.2075L4.23186 6.395L2.92154 8.6L4.9611 10.4012L4.8168 11.6675C4.75341 12.2208 4.75341 12.7792 4.8168 13.3325L4.9611 14.5975L2.92154 16.4013L4.22928 18.5987L6.85764 17.7863ZM12.4957 17.5C9.64945 17.5 7.34208 15.2614 7.34208 12.5C7.34208 9.73858 9.64945 7.5 12.4957 7.5C15.342 7.5 17.6494 9.73858 17.6494 12.5C17.6458 15.26 15.3405 17.4966 12.4957 17.5ZM12.4957 10C11.088 10.0014 9.94195 11.0986 9.92178 12.4642C9.90161 13.8298 11.0148 14.9584 12.4219 14.9989C13.829 15.0394 15.0092 13.9769 15.0726 12.6125V13.1125V12.5C15.0726 11.1193 13.9189 10 12.4957 10Z" fill="#E8E8E8"/>
</svg>
