<svg width="25" height="25" viewBox="0 0 25 25" fill="none" xmlns="http://www.w3.org/2000/svg">
<path d="M12.5 25C10.6101 25.0053 8.74406 24.5777 7.04505 23.7499C6.42325 23.4475 5.82748 23.0942 5.26382 22.6937L5.09257 22.5687C3.54236 21.4244 2.27494 19.9402 1.38761 18.2299C0.46979 16.4598 -0.00624083 14.4939 6.1778e-05 12.5C6.1778e-05 5.59642 5.59651 0 12.5 0C19.4035 0 24.9999 5.59642 24.9999 12.5C25.0062 14.4929 24.5306 16.4579 23.6136 18.2274C22.7275 19.9367 21.4619 21.4204 19.9137 22.5649C19.3296 22.9924 18.7099 23.3688 18.0612 23.6899L17.9612 23.7399C16.2611 24.572 14.3928 25.0031 12.5 25ZM12.5 18.7499C10.6269 18.7463 8.90961 19.7925 8.05379 21.4587C10.8555 22.8464 14.1445 22.8464 16.9462 21.4587V21.4524C16.0893 19.788 14.372 18.7442 12.5 18.7499ZM12.5 16.2499C15.2076 16.2535 17.7042 17.7126 19.0362 20.0699L19.0549 20.0537L19.0724 20.0387L19.0512 20.0574L19.0387 20.0674C22.1999 17.3363 23.3303 12.9279 21.8732 9.0126C20.4162 5.09733 16.6788 2.50038 12.5013 2.50038C8.32368 2.50038 4.58632 5.09733 3.12928 9.0126C1.67224 12.9279 2.8026 17.3363 5.96382 20.0674C7.29663 17.7112 9.79298 16.2532 12.5 16.2499ZM12.5 14.9999C9.7386 14.9999 7.50005 12.7614 7.50005 9.99996C7.50005 7.23855 9.7386 4.99998 12.5 4.99998C15.2614 4.99998 17.5 7.23855 17.5 9.99996C17.5 11.326 16.9732 12.5978 16.0355 13.5355C15.0978 14.4732 13.8261 14.9999 12.5 14.9999ZM12.5 7.49997C11.1193 7.49997 10 8.61925 10 9.99996C10 11.3807 11.1193 12.5 12.5 12.5C13.8807 12.5 15 11.3807 15 9.99996C15 8.61925 13.8807 7.49997 12.5 7.49997Z" fill="#E8E8E8"/>
</svg>
