<svg width="35" height="35" viewBox="0 0 35 35" fill="none" xmlns="http://www.w3.org/2000/svg">
<path d="M17.5 35C7.83502 35 0 27.165 0 17.5C0 7.83502 7.83502 0 17.5 0C27.165 0 35 7.83502 35 17.5C34.9894 27.1606 27.1606 34.9894 17.5 35ZM3.5 17.801C3.5828 25.5032 9.87194 31.6917 17.5744 31.6505C25.2769 31.6089 31.4992 25.3531 31.4992 17.6505C31.4992 9.94788 25.2769 3.6921 17.5744 3.6505C9.87194 3.6093 3.5828 9.79783 3.5 17.5V17.801ZM19.25 26.25H15.75V19.25H8.75V15.75H15.75V8.75H19.25V15.75H26.25V19.25H19.25V26.25Z" fill="white"/>
</svg>
