<svg width="35" height="35" viewBox="0 0 35 35" fill="none" xmlns="http://www.w3.org/2000/svg">
<circle cx="17.5" cy="17.5" r="17.5" fill="#5D6AE3"/>
<path d="M11 27H9V26C9.00441 22.1358 12.1358 19.0044 16 19H20C23.8642 19.0044 26.9956 22.1358 27 26V27H25V26C24.9967 23.2399 22.7601 21.0033 20 21H16C13.2399 21.0033 11.0033 23.2399 11 26V27ZM18 18C15.2386 18 13 15.7614 13 13C13 10.2386 15.2386 8 18 8C20.7614 8 23 10.2386 23 13C22.9967 15.7601 20.7601 17.9967 18 18ZM18 10C16.3431 10 15 11.3431 15 13C15 14.6569 16.3431 16 18 16C19.6569 16 21 14.6569 21 13C21 11.3431 19.6569 10 18 10Z" fill="white"/>
</svg>
